<svg width="212" height="195" viewBox="0 0 212 195" fill="none" xmlns="http://www.w3.org/2000/svg">
<rect x="122" width="15" height="15" fill="#E30CB4"/>
<rect x="137" y="15" width="15" height="15" fill="#E30CB4"/>
<rect x="152" y="15" width="15" height="15" fill="#E30CB4"/>
<rect x="167" y="30" width="15" height="15" fill="#E30CB4"/>
<rect x="167" y="45" width="15" height="15" fill="#E30CB4"/>
<rect x="182" y="60" width="15" height="15" fill="#E30CB4"/>
<rect x="182" y="75" width="15" height="15" fill="#E30CB4"/>
<rect x="197" y="90" width="15" height="15" fill="#E30CB4"/>
<rect x="197" y="105" width="15" height="15" fill="#E30CB4"/>
<rect x="197" y="120" width="15" height="15" fill="#E30CB4"/>
<rect x="197" y="135" width="15" height="15" fill="#E30CB4"/>
<rect x="107" width="15" height="15" fill="#E30CB4"/>
<rect x="92" width="15" height="15" fill="#E30CB4"/>
<rect x="77" y="15" width="15" height="15" fill="#E30CB4"/>
<rect x="47" y="30" width="15" height="15" fill="#E30CB4"/>
<rect x="47" y="45" width="15" height="15" fill="#E30CB4"/>
<rect x="32" y="60" width="15" height="15" fill="#E30CB4"/>
<rect x="32" y="75" width="15" height="15" fill="#E30CB4"/>
<rect x="17" y="90" width="15" height="15" fill="#E30CB4"/>
<rect x="17" y="105" width="15" height="15" fill="#E30CB4"/>
<rect x="17" y="120" width="15" height="15" fill="#E30CB4"/>
<rect x="17" y="135" width="15" height="15" fill="#E30CB4"/>
<rect x="32" y="150" width="15" height="15" fill="#E30CB4"/>
<rect x="47" y="150" width="15" height="15" fill="#E30CB4"/>
<rect x="62" y="150" width="15" height="15" fill="#E30CB4"/>
<rect x="92" y="165" width="15" height="15" fill="#E30CB4"/>
<rect x="77" y="165" width="15" height="15" fill="#E30CB4"/>
<rect x="107" y="165" width="15" height="15" fill="#E30CB4"/>
<rect x="122" y="165" width="15" height="15" fill="#E30CB4"/>
<rect x="137" y="165" width="15" height="15" fill="#E30CB4"/>
<rect x="152" y="165" width="15" height="15" fill="#E30CB4"/>
<rect x="62" y="165" width="15" height="15" fill="#E30CB4"/>
<rect x="152" y="150" width="15" height="15" fill="#E30CB4"/>
<rect x="167" y="150" width="15" height="15" fill="#E30CB4"/>
<rect x="182" y="150" width="15" height="15" fill="#E30CB4"/>
<rect x="62" y="15" width="15" height="15" fill="#E30CB4"/>
<rect x="75" width="17" height="15" fill="#F99ECF"/>
<rect x="58" width="17" height="15" fill="#F99ECF"/>
<rect x="45" y="15" width="17" height="15" fill="#F99ECF"/>
<rect x="30" y="30" width="17" height="15" fill="#F99ECF"/>
<rect x="30" y="45" width="17" height="15" fill="#F99ECF"/>
<rect x="15" y="60" width="17" height="15" fill="#F99ECF"/>
<rect x="15" y="75" width="17" height="15" fill="#F99ECF"/>
<rect y="90" width="17" height="15" fill="#F99ECF"/>
<rect y="105" width="17" height="15" fill="#F99ECF"/>
<rect y="120" width="17" height="15" fill="#F99ECF"/>
<rect y="135" width="17" height="15" fill="#F99ECF"/>
<rect x="15" y="150" width="17" height="15" fill="#F99ECF"/>
<rect x="28" y="165" width="17" height="15" fill="#F99ECF"/>
<rect x="59" y="180" width="17" height="15" fill="#F99ECF"/>
<rect x="76" y="180" width="17" height="15" fill="#F99ECF"/>
<rect x="91" y="180" width="17" height="15" fill="#F99ECF"/>
<rect x="108" y="180" width="17" height="15" fill="#F99ECF"/>
<rect x="125" y="180" width="17" height="15" fill="#F99ECF"/>
<rect x="142" y="180" width="17" height="15" fill="#F99ECF"/>
<rect x="150" y="180" width="17" height="15" fill="#F99ECF"/>
<rect x="45" y="165" width="17" height="15" fill="#F99ECF"/>
<rect x="62" y="30" width="15" height="15" fill="#FF00C7"/>
<rect x="47" y="60" width="15" height="15" fill="#FF00C7"/>
<rect x="47" y="75" width="15" height="15" fill="#FF00C7"/>
<rect x="62" y="60" width="15" height="15" fill="#FF00C7"/>
<rect x="62" y="75" width="15" height="15" fill="#FF00C7"/>
<rect x="77" y="60" width="15" height="15" fill="#FF00C7"/>
<rect x="77" y="75" width="15" height="15" fill="#FF00C7"/>
<rect x="92" y="60" width="15" height="15" fill="#FF00C7"/>
<rect x="92" y="75" width="15" height="15" fill="#FF00C7"/>
<rect x="107" y="60" width="15" height="15" fill="#FF00C7"/>
<rect x="107" y="75" width="15" height="15" fill="#FF00C7"/>
<rect x="122" y="60" width="15" height="15" fill="#FF00C7"/>
<rect x="122" y="75" width="15" height="15" fill="#FF00C7"/>
<rect x="137" y="60" width="15" height="15" fill="#FF00C7"/>
<rect x="137" y="75" width="15" height="15" fill="#FF00C7"/>
<rect x="152" y="60" width="15" height="15" fill="#FF00C7"/>
<rect x="152" y="75" width="15" height="15" fill="#FF00C7"/>
<rect x="167" y="60" width="15" height="15" fill="#FF00C7"/>
<rect x="167" y="75" width="15" height="15" fill="#FF00C7"/>
<rect x="167" y="90" width="15" height="15" fill="#FF00C7"/>
<rect x="152" y="90" width="15" height="15" fill="#FF00C7"/>
<rect x="137" y="90" width="15" height="15" fill="#FF00C7"/>
<rect x="122" y="90" width="15" height="15" fill="#FF00C7"/>
<rect x="107" y="90" width="15" height="15" fill="#FF00C7"/>
<rect x="92" y="90" width="15" height="15" fill="#FF00C7"/>
<rect x="77" y="90" width="15" height="15" fill="#FF00C7"/>
<rect x="62" y="90" width="15" height="15" fill="#FF00C7"/>
<rect x="47" y="90" width="15" height="15" fill="#FF00C7"/>
<rect x="32" y="90" width="15" height="15" fill="#FF00C7"/>
<rect x="32" y="105" width="16" height="15" fill="#FF00C7"/>
<rect x="48" y="105" width="15" height="15" fill="#FF00C7"/>
<rect x="47" y="120" width="15" height="15" fill="#FF00C7"/>
<rect x="47" y="135" width="15" height="15" fill="#FF00C7"/>
<rect x="32" y="120" width="15" height="15" fill="#FF00C7"/>
<rect x="32" y="135" width="15" height="15" fill="#FF00C7"/>
<rect x="63" y="105" width="15" height="15" fill="#FF00C7"/>
<rect x="62" y="120" width="15" height="15" fill="#FF00C7"/>
<rect x="62" y="135" width="15" height="15" fill="#FF00C7"/>
<rect x="78" y="105" width="15" height="15" fill="#FF00C7"/>
<rect x="77" y="120" width="15" height="15" fill="#FF00C7"/>
<rect x="77" y="135" width="15" height="15" fill="#FF00C7"/>
<rect x="77" y="150" width="15" height="15" fill="#FF00C7"/>
<rect x="93" y="105" width="15" height="15" fill="#FF00C7"/>
<rect x="92" y="120" width="15" height="15" fill="#FF00C7"/>
<rect x="92" y="135" width="15" height="15" fill="#FF00C7"/>
<rect x="92" y="150" width="15" height="15" fill="#FF00C7"/>
<rect x="107" y="120" width="15" height="15" fill="#FF00C7"/>
<rect x="107" y="135" width="15" height="15" fill="#FF00C7"/>
<rect x="107" y="150" width="15" height="15" fill="#FF00C7"/>
<rect x="122" y="120" width="15" height="15" fill="#FF00C7"/>
<rect x="122" y="135" width="15" height="15" fill="#FF00C7"/>
<rect x="122" y="150" width="15" height="15" fill="#FF00C7"/>
<rect x="137" y="120" width="15" height="15" fill="#FF00C7"/>
<rect x="137" y="135" width="15" height="15" fill="#FF00C7"/>
<rect x="137" y="150" width="15" height="15" fill="#FF00C7"/>
<rect x="152" y="120" width="15" height="15" fill="#FF00C7"/>
<rect x="152" y="135" width="15" height="15" fill="#FF00C7"/>
<rect x="167" y="120" width="15" height="15" fill="#FF00C7"/>
<rect x="167" y="135" width="15" height="15" fill="#FF00C7"/>
<rect x="182" y="120" width="15" height="15" fill="#FF00C7"/>
<rect x="182" y="135" width="15" height="15" fill="#FF00C7"/>
<rect x="108" y="105" width="15" height="15" fill="#FF00C7"/>
<rect x="123" y="105" width="15" height="15" fill="#FF00C7"/>
<rect x="138" y="105" width="15" height="15" fill="#FF00C7"/>
<rect x="153" y="105" width="15" height="15" fill="#FF00C7"/>
<rect x="168" y="105" width="15" height="15" fill="#FF00C7"/>
<rect x="182" y="105" width="15" height="15" fill="#FF00C7"/>
<rect x="182" y="90" width="15" height="15" fill="#FF00C7"/>
<rect x="62" y="45" width="15" height="15" fill="#FF00C7"/>
<rect x="77" y="30" width="15" height="15" fill="#FF00C7"/>
<rect x="77" y="45" width="15" height="15" fill="#FF00C7"/>
<rect x="122" y="30" width="15" height="15" fill="#FF00C7"/>
<rect x="122" y="45" width="15" height="15" fill="#FF00C7"/>
<rect x="137" y="30" width="15" height="15" fill="#FF00C7"/>
<rect x="137" y="45" width="15" height="15" fill="#FF00C7"/>
<rect x="152" y="30" width="15" height="15" fill="#FF00C7"/>
<rect x="152" y="45" width="15" height="15" fill="#FF00C7"/>
<rect x="107" y="30" width="15" height="15" fill="#FF00C7"/>
<rect x="107" y="45" width="15" height="15" fill="#FF00C7"/>
<rect x="92" y="30" width="15" height="15" fill="#FF00C7"/>
<rect x="92" y="45" width="15" height="15" fill="#FF00C7"/>
<rect x="122" y="15" width="15" height="15" fill="#FF00C7"/>
<rect x="107" y="15" width="15" height="15" fill="#FF00C7"/>
<rect x="92" y="15" width="15" height="15" fill="#FF00C7"/>
<rect x="92" y="15" width="15" height="15" fill="#FF7CE2"/>
<rect x="77" y="30" width="15" height="15" fill="#FF7CE2"/>
<rect x="92" y="30" width="15" height="15" fill="#FF7CE2"/>
<rect x="107" y="30" width="15" height="15" fill="#FF7CE2"/>
<rect x="122" y="30" width="15" height="15" fill="#FF7CE2"/>
<rect x="137" y="30" width="15" height="15" fill="#FF7CE2"/>
<rect x="152" y="30" width="15" height="15" fill="#FF7CE2"/>
<rect x="62" y="30" width="15" height="15" fill="#FF7CE2"/>
<rect x="107" y="15" width="15" height="15" fill="#FF7CE2"/>
<rect x="122" y="15" width="15" height="15" fill="#FF7CE2"/>
<rect x="105" y="30" width="15" height="15" fill="#FFDBF7"/>
<rect x="105" y="45" width="15" height="15" fill="#FFDBF7"/>
<rect x="105" y="60" width="15" height="15" fill="#FFDBF7"/>
<rect x="105" y="75" width="15" height="15" fill="#FFDBF7"/>
<rect x="105" y="90" width="15" height="15" fill="#FFDBF7"/>
<rect x="103" y="125" width="20" height="18" fill="#FFDBF7"/>
</svg>
